<svg xmlns="http://www.w3.org/2000/svg" width="64" height="64" viewBox="0 0 64 64" fill="none">
  <rect width="64" height="64" rx="16" fill="#151030"/>
  <path d="M23.1 40.8C21.34 40.8 19.78 40.4 18.42 39.6C17.08 38.78 16.02 37.66 15.24 36.24C14.48 34.82 14.1 33.22 14.1 31.44C14.1 29.66 14.48 28.06 15.24 26.64C16.02 25.22 17.08 24.1 18.42 23.28C19.78 22.46 21.34 22.06 23.1 22.06C24.74 22.06 26.18 22.42 27.42 23.14C28.66 23.86 29.64 24.84 30.36 26.08L27.36 28.16C26.84 27.36 26.22 26.76 25.5 26.36C24.78 25.96 23.98 25.76 23.1 25.76C22.02 25.76 21.06 26 20.22 26.48C19.38 26.94 18.72 27.6 18.24 28.46C17.76 29.32 17.52 30.3 17.52 31.4C17.52 32.5 17.76 33.5 18.24 34.38C18.72 35.24 19.38 35.9 20.22 36.36C21.06 36.82 22.02 37.06 23.1 37.06C23.98 37.06 24.78 36.86 25.5 36.46C26.22 36.06 26.84 35.46 27.36 34.66L30.36 36.74C29.64 37.98 28.66 38.96 27.42 39.68C26.18 40.4 24.74 40.76 23.1 40.8Z" fill="url(#paint0_linear_1_2)"/>
  <path d="M37.35 40.8C35.43 40.8 33.83 40.38 32.55 39.54C31.27 38.7 30.39 37.62 29.91 36.3L32.87 34.78C33.19 35.66 33.75 36.36 34.55 36.88C35.35 37.4 36.27 37.66 37.31 37.66C38.23 37.66 38.93 37.48 39.41 37.12C39.91 36.76 40.15 36.28 40.15 35.68C40.15 35.04 39.85 34.54 39.25 34.18C38.65 33.82 37.67 33.44 36.31 33.04C35.15 32.68 34.17 32.32 33.37 31.96C32.57 31.6 31.89 31.1 31.33 30.46C30.77 29.82 30.49 28.98 30.49 27.94C30.49 26.5 31.05 25.36 32.17 24.52C33.31 23.68 34.79 23.26 36.61 23.26C38.07 23.26 39.35 23.56 40.45 24.16C41.55 24.76 42.39 25.64 42.97 26.8L40.01 28.32C39.73 27.72 39.25 27.24 38.57 26.88C37.91 26.52 37.17 26.34 36.35 26.34C35.53 26.34 34.87 26.5 34.37 26.82C33.87 27.14 33.63 27.58 33.63 28.14C33.63 28.74 33.93 29.22 34.53 29.58C35.13 29.94 36.07 30.3 37.35 30.66C38.59 31.02 39.59 31.38 40.35 31.74C41.11 32.1 41.77 32.62 42.33 33.3C42.89 33.98 43.17 34.84 43.17 35.88C43.17 36.84 42.87 37.7 42.27 38.46C41.69 39.22 40.89 39.82 39.87 40.26C38.85 40.62 37.67 40.8 36.33 40.8H37.35Z" fill="url(#paint1_linear_1_2)"/>
  <defs>
    <linearGradient id="paint0_linear_1_2" x1="14.1" y1="22.06" x2="52.9" y2="41.8" gradientUnits="userSpaceOnUse">
      <stop stop-color="#915EFF"/>
      <stop offset="1" stop-color="#4A30BD"/>
    </linearGradient>
    <linearGradient id="paint1_linear_1_2" x1="14.1" y1="22.06" x2="52.9" y2="41.8" gradientUnits="userSpaceOnUse">
      <stop stop-color="#915EFF"/>
      <stop offset="1" stop-color="#4A30BD"/>
    </linearGradient>
  </defs>
</svg> 